# xmcd
#
# Track frame offsets:
#	150
#	12362
#	45807
#	65340
#	91573
#	121373
#	153228
#	181823
#	196173
# Disc length: 2797 seconds
# Revision: 1
# Processed by: cddbd v1.5.1PL2 Copyright (c) Steve Scherf et al.
#
# Submitted via: libkcddb 0.21
#
DISCID=5c0aeb09
DTITLE=THE BOOK'S BURNING - OLEG PISSARENKO - OLEG PISSARENKO
DYEAR=2005
DGENRE=Jazz
TTITLE0=A L PRE 3
TTITLE1=THE BOOK´S BURNING
TTITLE2=GOODNIGHT GROOVE
TTITLE3=SPRING YELLOW
TTITLE4=REGGAE BLUES
TTITLE5=SUNSTROKE
TTITLE6=GOODBYE M - HELLO N
TTITLE7=PETER´S SONG
TTITLE8=A L POS 3
EXTD=
EXTT0=
EXTT1=
EXTT2=
EXTT3=
EXTT4=
EXTT5=
EXTT6=
EXTT7=
EXTT8=
PLAYORDER=
